<?xml version="1.0" encoding="iso-8859-1"?>
<!-- Generator: Adobe Illustrator 25.4.1, SVG Export Plug-In . SVG Version: 6.00 Build 0)  -->
<svg version="1.1" id="Layer_1" xmlns="http://www.w3.org/2000/svg" xmlns:xlink="http://www.w3.org/1999/xlink" x="0px" y="0px"
	 viewBox="0 0 45 48" style="enable-background:new 0 0 45 48;" xml:space="preserve">
<g>
	<defs>
		<rect id="SVGID_1_" width="45" height="48"/>
	</defs>
	<clipPath id="SVGID_00000024696122349705531740000004820690789896137089_">
		<use xlink:href="#SVGID_1_"  style="overflow:visible;"/>
	</clipPath>
	<path style="clip-path:url(#SVGID_00000024696122349705531740000004820690789896137089_);fill:#FFFFFF;" d="M24.267,14.199
		c1.369-2.74,0.557-6.759-2.161-8.313c1.318,2.131-0.918,5.985-2.229,5.527c1.021-1.465,0.767-2.684,0.382-3.292
		c-0.11,0.597-0.593,1.457-1.171,2.2c-1.936,2.476-1.875,4.49,0.7,5.378c3.039,1.051,2.516,3.157,2.23,3.898
		c4.687-2.214,6.979-6.478,4.596-10.531C27.172,11.27,25.489,14.589,24.267,14.199"/>
	<path style="clip-path:url(#SVGID_00000024696122349705531740000004820690789896137089_);fill:#FFFFFF;" d="M41.18,4.366
		l-0.033-0.02l-0.2-0.046c-6-1.281-12.165-1.93-18.322-1.93c-6.163,0-12.336,0.651-18.342,1.936l-0.03,0.007L4.225,4.319
		C3.205,4.574,2.5,5.477,2.5,6.517l0.002,3.266c0,23.546,14.569,33.097,19.034,35.463c0.359,0.19,0.729,0.287,1.097,0.287
		c0.369,0,0.736-0.098,1.09-0.29c4.453-2.36,19.027-11.914,19.027-35.461V6.517C42.75,5.531,42.104,4.661,41.18,4.366 M8.963,30.853
		c-0.189-0.335-0.375-0.679-0.558-1.028c1.723-2.152,3.925-3.901,6.441-5.099c-1.88,1.556-3.473,3.652-4.657,6.127H8.963z
		 M15.047,38.545h-0.252c-1.465-1.464-2.943-3.205-4.323-5.252c0.151-0.422,0.306-0.838,0.479-1.24h4.893
		C15.438,34.028,15.167,36.217,15.047,38.545 M11.505,30.853c1.855-3.621,4.658-6.285,7.919-7.357
		c-1.378,1.572-2.521,4.135-3.305,7.357H11.505z M22.026,44.012c-1.543-0.83-3.623-2.173-5.829-4.144
		c0.002-0.041,0.002-0.083,0.003-0.125h5.826V44.012z M22.026,38.545h-5.779c0.122-2.387,0.403-4.573,0.808-6.492h4.971V38.545z
		 M22.026,30.853h-4.689c1.12-4.443,2.902-7.281,4.689-7.805V30.853z M23.225,44.014v-4.271h5.826
		c0.001,0.042,0.001,0.085,0.003,0.127C26.848,41.841,24.767,43.183,23.225,44.014 M28.195,32.053
		c0.406,1.919,0.687,4.105,0.809,6.492h-5.779v-6.492H28.195z M23.225,30.853v-7.804c1.787,0.525,3.568,3.362,4.689,7.804H23.225z
		 M25.827,23.495c3.26,1.073,6.064,3.736,7.919,7.358h-4.614C28.347,27.631,27.203,25.067,25.827,23.495 M30.457,38.545h-0.253
		c-0.121-2.328-0.391-4.517-0.797-6.492H34.3c0.173,0.403,0.329,0.82,0.479,1.243C33.4,35.34,31.921,37.081,30.457,38.545
		 M36.289,30.853h-1.23c-1.181-2.474-2.773-4.569-4.652-6.125c2.515,1.197,4.716,2.945,6.439,5.097
		C36.664,30.175,36.479,30.518,36.289,30.853 M41.434,9.782c0,7.733-1.643,13.945-4,18.869c-3.562-4.209-8.874-6.891-14.806-6.892
		h-0.003h-0.001c-5.933,0-11.243,2.682-14.806,6.89C5.462,23.723,3.819,17.515,3.819,9.782L3.817,6.517
		c0-0.443,0.306-0.814,0.715-0.915l0.026-0.007c5.826-1.248,11.868-1.909,18.067-1.909c6.188,0,12.228,0.66,18.046,1.903
		l0.013,0.006c0.429,0.087,0.75,0.467,0.75,0.922V9.782z"/>
</g>
</svg>
